<svg width="108" height="118" viewBox="0 0 108 118" fill="none" xmlns="http://www.w3.org/2000/svg">
<path opacity="0.25" d="M26.8761 75.0001C26.6495 57.3198 34.1636 44.1096 49.8761 36.0001C63.4102 29.0149 76.3537 27.3308 88.8761 36.0001C102.076 45.1384 102.573 58.961 101.876 75.0001C101.259 89.202 99.9707 100.113 88.8761 109C75.1604 119.987 58.3249 119.003 43.8761 109C31.6706 100.55 27.0662 89.844 26.8761 75.0001Z" stroke="black"/>
<path d="M67.895 69.0541H74.495V73.8941H67.895V80.4941H63.055V73.8941H56.495V69.0541H63.055V62.4941H67.895V69.0541Z" fill="black"/>
<g opacity="0.5">
<path d="M12.4843 60.3509C12.7644 59.8177 13.157 59.4117 13.662 59.1328C14.167 58.8539 14.7171 58.7394 15.3124 58.7892C16.1734 58.8612 16.8815 59.2255 17.4367 59.8821C17.9919 60.5387 18.2334 61.2975 18.1614 62.1585L17.7546 67.0215L6.59355 66.0877L6.96972 61.5914C7.03819 60.773 7.39496 60.091 8.04001 59.5455C8.67355 59.0098 9.39955 58.7762 10.218 58.8447C11.2597 58.9318 12.0152 59.4339 12.4843 60.3509ZM8.02204 61.6795L7.73925 65.0597L11.6297 65.3851L11.9125 62.005C11.9551 61.4947 11.806 61.0381 11.4651 60.6349C11.1029 60.23 10.6561 60.0053 10.1247 59.9608C9.6038 59.9172 9.13117 60.065 8.70675 60.4041C8.29297 60.7441 8.06473 61.1693 8.02204 61.6795ZM16.7956 65.8173L17.1091 62.0704C17.1553 61.5177 16.9978 61.0335 16.6365 60.618C16.2761 60.1918 15.8036 59.9542 15.219 59.9053C14.645 59.8573 14.1449 60.0135 13.7187 60.3739C13.2828 60.7227 13.0417 61.1735 12.9955 61.7263L12.682 65.4732L16.7956 65.8173Z" fill="black"/>
<path d="M14.1292 49.0435L12.6109 48.652L12.8746 47.6295L20.6212 49.627L20.3575 50.6496L18.8392 50.258C19.7916 51.2637 20.0907 52.4534 19.7364 53.8271C19.4514 54.9323 18.8152 55.7762 17.8278 56.3588C16.8431 56.931 15.7826 57.0706 14.6465 56.7777C13.5103 56.4847 12.6496 55.8497 12.0644 54.8726C11.4818 53.8852 11.333 52.8389 11.618 51.7337C11.9722 50.36 12.8093 49.4632 14.1292 49.0435ZM17.3224 55.4353C18.063 54.9984 18.5438 54.3513 18.7648 53.494C18.9859 52.6367 18.878 51.8378 18.441 51.0972C17.9834 50.3513 17.3312 49.8692 16.4842 49.6508C15.6269 49.4297 14.828 49.5377 14.0874 49.9746C13.3366 50.4089 12.8506 51.0546 12.6295 51.9119C12.4085 52.7692 12.5216 53.5695 12.9688 54.3127C13.4057 55.0532 14.0529 55.534 14.9101 55.7551C15.7571 55.9735 16.5612 55.8669 17.3224 55.4353Z" fill="black"/>
<path d="M25.0044 37.8935L18.8927 34.5302L19.4018 33.6051L26.4107 37.462L21.2424 46.8539L14.2335 42.997L14.7426 42.0718L20.8544 45.435L22.6748 42.1268L16.5631 38.7636L17.0722 37.8384L23.184 41.2017L25.0044 37.8935Z" fill="black"/>
<path d="M28.7412 26.8194L27.7712 25.5875L28.6008 24.9342L33.5501 31.2195L32.7204 31.8728L31.7504 30.6409C31.898 32.018 31.4146 33.1455 30.3 34.0231C29.4033 34.7292 28.3857 35.0146 27.2473 34.8792C26.1172 34.7372 25.1892 34.2053 24.4633 33.2835C23.7375 32.3616 23.438 31.3348 23.565 30.203C23.7004 29.0645 24.2164 28.1423 25.1131 27.4362C26.2277 26.5585 27.4371 26.3529 28.7412 26.8194ZM27.4052 33.8384C28.259 33.9399 29.0337 33.7168 29.7293 33.1691C30.4249 32.6214 30.8234 31.9206 30.925 31.0668C31.0133 30.1962 30.7869 29.4173 30.2458 28.7301C29.6981 28.0346 28.9973 27.636 28.1435 27.5345C27.2831 27.4246 26.5051 27.6435 25.8095 28.1912C25.1139 28.7389 24.7187 29.4439 24.6237 30.3061C24.5222 31.1599 24.7453 31.9346 25.293 32.6302C25.8341 33.3174 26.5382 33.7201 27.4052 33.8384Z" fill="black"/>
<path d="M40.2175 25.3831L41.2522 17.6624L42.0273 17.213L46.0403 24.1337L45.1268 24.6634L42.0368 19.3344L41.002 27.0551L40.2269 27.5045L36.2139 20.5838L37.1275 20.0541L40.2175 25.3831Z" fill="black"/>
<path d="M51.6725 21.4435C50.5831 21.9593 49.5057 22.0269 48.4403 21.6462C47.3658 21.2462 46.5774 20.516 46.0753 19.4556C45.5686 18.3854 45.5056 17.3177 45.8863 16.2523C46.2624 15.1773 46.9952 14.3818 48.0846 13.866C48.798 13.5282 49.5213 13.3982 50.2544 13.4759C50.9829 13.544 51.6143 13.8057 52.1485 14.2609L51.5799 15.0789C51.1816 14.7364 50.7063 14.5425 50.1538 14.4972C49.6063 14.4378 49.0627 14.5359 48.5228 14.7915C47.7226 15.1704 47.1802 15.7695 46.8954 16.5888C46.6061 17.3985 46.6509 18.2035 47.0297 19.0036C47.4041 19.7942 48.0006 20.3437 48.8195 20.6523C49.6292 20.9417 50.4341 20.8969 51.2343 20.518C51.7645 20.2669 52.1824 19.9157 52.4879 19.4642C52.803 19.0081 52.9761 18.5013 53.0071 17.9437L54.0216 18.0298C53.9966 18.7498 53.7748 19.4154 53.3561 20.0267C52.9375 20.638 52.3762 21.1103 51.6725 21.4435Z" fill="black"/>
<path d="M53.1184 11.7445L59.6075 9.99805L59.8736 10.9869L57.139 11.7229L58.952 18.4592L57.9323 18.7336L56.1192 11.9973L53.3846 12.7334L53.1184 11.7445Z" fill="black"/>
<path d="M70.2154 16.0666C69.4173 16.8898 68.4371 17.3179 67.2749 17.3512C66.0914 17.385 65.083 17.0136 64.2498 16.2371C63.4163 15.45 62.9827 14.4646 62.9488 13.2811C62.915 12.0976 63.2918 11.0944 64.0793 10.2716C64.8665 9.43807 65.8518 9.00441 67.0354 8.97058C68.2082 8.93705 69.2114 9.31388 70.0449 10.1011C70.8887 10.8773 71.3276 11.8571 71.3614 13.0406C71.3949 14.2135 71.0129 15.2222 70.2154 16.0666ZM64.9805 15.4799C65.6056 16.0703 66.3607 16.3529 67.2456 16.3276C68.1306 16.3023 68.8683 15.9771 69.4587 15.3519C70.0484 14.7055 70.3308 13.9451 70.3058 13.0708C70.2805 12.1858 69.9553 11.4482 69.3302 10.8578C68.7048 10.2567 67.9496 9.96887 67.0646 9.99416C66.1796 10.0195 65.4421 10.35 64.852 10.9858C64.2617 11.6109 63.9791 12.366 64.0044 13.2509C64.0294 14.1252 64.3548 14.8682 64.9805 15.4799Z" fill="black"/>
<path d="M79.0552 9.76918C80.1822 9.94981 81.0765 10.5037 81.7381 11.4307C82.4103 12.3595 82.6535 13.4031 82.4678 14.5617C82.2821 15.7202 81.7249 16.6356 80.7961 17.3077C79.8779 17.9815 78.8553 18.2282 77.7284 18.0475C76.3276 17.823 75.3567 17.0732 74.8157 15.7982L74.0611 20.5061L73.0184 20.339L74.7909 9.28014L75.8336 9.44726L75.5854 10.9955C76.4979 9.95343 77.6545 9.54466 79.0552 9.76918ZM75.744 15.7688C76.2481 16.4653 76.9373 16.8837 77.8115 17.0238C78.6856 17.1639 79.471 16.9819 80.1676 16.4778C80.8675 15.9526 81.2867 15.2582 81.4251 14.3945C81.5652 13.5204 81.3832 12.735 80.8791 12.0384C80.3767 11.3313 79.6884 10.9077 78.8142 10.7676C77.94 10.6275 77.1538 10.8148 76.4556 11.3294C75.759 11.8335 75.3407 12.5227 75.2005 13.3968C75.0621 14.2605 75.2433 15.0511 75.744 15.7688Z" fill="black"/>
<path d="M86.1845 17.6884L92.5842 13.2473L93.4387 13.5167L91.033 21.1464L90.0259 20.8289L91.8783 14.954L85.4786 19.3951L84.624 19.1256L87.0297 11.4959L88.0368 11.8135L86.1845 17.6884Z" fill="black"/>
<path d="M98.7863 15.8655L101.683 17.3356L98.0617 24.4693L97.12 23.9913L98.5104 21.252L97.2835 20.6292L93.6959 22.2533L92.4974 21.645L96.1565 20.0213C95.6198 19.6412 95.2649 19.1621 95.0919 18.5838C94.9332 18.0009 94.9963 17.4288 95.2812 16.8676C95.6046 16.2303 96.1009 15.8183 96.7698 15.6315C97.4578 15.4544 98.13 15.5324 98.7863 15.8655ZM97.0048 19.3753L98.9594 20.3674L100.277 17.7708L98.3228 16.7787C97.9138 16.5711 97.5086 16.5209 97.1073 16.6282C96.7107 16.726 96.4159 16.9651 96.2228 17.3456C96.0297 17.726 96.0083 18.1099 96.1586 18.4972C96.3137 18.875 96.5958 19.1677 97.0048 19.3753Z" fill="black"/>
</g>
</svg>
